<?xml version="1.0" standalone="no"?>
<!DOCTYPE svg PUBLIC "-//W3C//DTD SVG 20010904//EN"
 "http://www.w3.org/TR/2001/REC-SVG-20010904/DTD/svg10.dtd">
<svg version="1.0" xmlns="http://www.w3.org/2000/svg"
 width="950.000000pt" height="950.000000pt" viewBox="0 0 950.000000 950.000000"
 preserveAspectRatio="xMidYMid meet">
<metadata>
Created by potrace 1.11, written by Peter Selinger 2001-2013
</metadata>
<g transform="translate(0.000000,950.000000) scale(0.100000,-0.100000)"
fill="#000000" stroke="none">
<path d="M1115 6936 c0 -965 4 -1758 7 -1762 6 -5 646 -9 810 -5 l27 1 -4 963
c-2 529 -6 989 -8 1022 -12 156 -20 276 -31 443 -4 52 3 63 21 40 6 -7 52 -94
103 -193 51 -99 97 -186 103 -192 5 -7 6 -13 2 -13 -5 0 -1 -8 7 -17 8 -10 43
-74 78 -143 35 -69 80 -156 100 -195 20 -38 83 -160 140 -270 56 -110 117
-227 135 -260 47 -87 86 -164 83 -167 -1 -2 10 -21 23 -43 14 -22 47 -83 74
-135 147 -289 175 -343 186 -356 6 -8 8 -14 4 -14 -4 0 -3 -6 3 -12 9 -12 74
-136 190 -363 26 -49 48 -92 49 -94 2 -2 284 -5 627 -5 l624 -1 0 1763 0 1762
-425 0 -424 0 2 -105 c1 -58 -1 -108 -4 -111 -2 -3 -1 -21 3 -40 4 -19 5 -36
1 -38 -3 -2 -4 -93 -1 -201 3 -108 2 -199 -1 -201 -4 -2 -3 -20 1 -39 4 -19 5
-37 1 -39 -3 -2 -4 -93 -1 -201 3 -108 2 -199 -1 -201 -4 -2 -3 -19 1 -38 4
-19 6 -37 3 -40 -8 -8 0 -616 12 -841 14 -264 15 -359 6 -350 -5 6 -35 60 -66
120 -32 61 -78 148 -103 195 -24 47 -83 159 -129 250 -47 91 -93 179 -103 195
-10 17 -59 111 -110 210 -51 99 -96 185 -100 190 -4 6 -49 91 -100 190 -50 99
-108 209 -127 245 -19 36 -57 110 -86 165 -28 55 -63 121 -79 148 -15 26 -25
47 -22 47 4 0 1 6 -5 13 -6 8 -35 60 -65 118 -29 57 -83 160 -119 229 l-65
125 -624 3 -623 2 0 -1754z"/>
<path d="M5333 7508 c3 -651 7 -1196 10 -1213 3 -16 8 -46 10 -65 3 -19 8 -46
11 -60 4 -14 8 -36 10 -50 2 -14 6 -32 9 -40 3 -8 13 -42 22 -75 17 -58 84
-225 95 -235 3 -3 14 -21 24 -40 55 -100 213 -276 293 -327 16 -10 30 -20 33
-23 26 -27 184 -111 276 -146 16 -7 38 -15 49 -19 11 -5 25 -9 31 -10 6 -2 36
-10 65 -18 30 -9 70 -19 89 -22 19 -3 53 -10 75 -15 144 -32 589 -35 746 -5
13 3 47 9 74 15 28 5 59 11 70 13 22 4 131 35 155 44 8 3 20 7 25 9 11 2 94
38 135 57 227 107 436 316 548 548 37 76 85 206 98 264 27 119 41 208 49 325
3 46 8 2090 5 2258 0 9 -102 12 -475 12 l-475 0 -1 -1087 c-1 -1121 -1 -1121
-20 -1238 -50 -303 -210 -445 -509 -450 -105 -2 -187 11 -265 41 -44 17 -135
79 -148 100 -4 7 -14 19 -22 27 -56 57 -111 208 -131 362 -4 28 -7 543 -8
1145 l-1 1095 -478 3 -478 2 4 -1182z"/>
<path d="M1270 4988 c-41 -4 -88 -9 -103 -13 -95 -20 -233 -85 -317 -150 -50
-39 -160 -150 -160 -161 0 -3 -11 -20 -25 -38 -33 -43 -112 -212 -120 -255 -3
-19 -8 -37 -10 -41 -5 -8 -15 -66 -21 -125 -5 -51 -5 -2592 1 -2625 13 -86 19
-112 41 -178 63 -189 180 -347 334 -452 79 -54 154 -87 260 -116 l85 -23 1398
-1 c768 0 1397 3 1398 7 0 5 2 42 5 83 19 322 141 512 387 605 37 14 67 23 67
20 0 -2 12 0 26 5 55 21 248 30 371 17 211 -22 392 -124 478 -271 30 -51 73
-169 81 -219 3 -18 7 -48 10 -67 3 -19 7 -66 8 -105 l2 -70 1400 0 c769 0
1417 4 1439 8 207 40 380 151 512 327 70 93 150 277 156 358 1 18 4 32 7 32 9
0 9 67 11 1355 1 1222 -1 1329 -21 1422 -22 98 -111 303 -132 303 -4 0 -8 6
-8 13 0 31 -216 237 -249 237 -6 0 -11 3 -11 8 0 4 -12 13 -28 20 -61 29 -141
61 -163 66 -13 2 -46 10 -74 16 -38 10 -852 13 -3505 14 -1900 0 -3489 -2
-3530 -6z m917 -301 c4 -5 9 -13 9 -18 1 -5 3 -10 4 -11 1 -2 4 -12 6 -23 2
-11 14 -60 28 -110 13 -49 33 -125 45 -168 11 -43 22 -81 25 -86 3 -4 8 -21
11 -37 3 -16 16 -69 30 -119 14 -49 27 -99 30 -110 2 -11 9 -38 15 -60 6 -22
13 -50 15 -62 3 -12 9 -33 14 -45 5 -13 9 -25 9 -28 0 -3 3 -12 6 -20 4 -12
28 -109 41 -165 1 -5 4 -17 8 -25 8 -22 28 -103 29 -115 0 -5 4 -17 9 -26 4
-9 10 -27 13 -40 2 -13 18 -78 36 -144 18 -66 40 -151 50 -190 11 -38 26 -97
35 -130 17 -59 20 -74 30 -117 2 -13 7 -35 11 -50 3 -15 6 -31 6 -35 0 -5 4
-18 9 -31 5 -12 11 -33 13 -45 3 -12 12 -56 21 -97 9 -41 20 -95 26 -120 5
-25 12 -63 14 -85 3 -22 8 -47 11 -56 7 -23 14 -75 18 -127 3 -47 16 -69 17
-31 0 13 2 33 4 44 2 11 7 40 10 65 3 25 10 68 15 95 9 50 15 82 25 140 6 33
13 69 20 100 2 11 14 63 25 115 25 116 25 115 40 170 7 25 14 52 15 60 2 8 4
15 5 15 1 0 3 7 5 15 1 8 13 51 24 95 28 105 31 116 37 142 2 12 9 35 15 50 6
16 12 36 14 46 2 10 23 86 46 170 22 84 43 159 45 167 1 8 17 65 34 125 16 61
33 123 35 139 3 16 10 36 14 45 5 9 11 30 14 46 3 17 29 113 57 215 28 102 53
192 55 201 2 8 17 62 33 120 16 57 32 115 35 129 l6 25 523 0 c458 0 523 -2
522 -15 -1 -8 -25 -85 -53 -170 -114 -344 -163 -494 -167 -509 -5 -20 -52
-161 -61 -181 -3 -8 -7 -19 -8 -25 0 -5 -4 -17 -7 -25 -7 -16 -31 -89 -34
-105 -2 -5 -21 -64 -43 -130 -23 -66 -43 -128 -45 -137 -8 -31 -277 -852 -293
-893 -8 -22 -16 -47 -18 -55 -3 -15 -152 -473 -162 -500 -4 -8 -7 -17 -8 -20
-2 -10 -48 -152 -127 -390 -44 -134 -81 -250 -82 -257 -1 -7 -5 -16 -9 -19 -4
-4 -7 -16 -7 -26 0 -10 -6 -18 -12 -19 -7 0 -255 -1 -551 -2 -371 -1 -541 1
-548 9 -7 9 -64 173 -74 214 -2 8 -24 75 -49 148 -25 73 -45 135 -46 137 0 3
-2 10 -5 17 -2 7 -14 45 -25 83 -12 39 -25 79 -30 90 -9 22 -63 184 -66 200
-1 6 -34 109 -74 229 -40 120 -73 224 -75 230 -2 11 -7 25 -28 81 -7 17 -12
32 -13 35 -2 17 -27 97 -32 105 -3 5 -7 16 -8 25 -1 8 -14 49 -28 90 -15 41
-28 82 -31 90 -5 21 -135 422 -142 440 -4 8 -7 17 -8 20 -6 23 -89 280 -95
295 -5 11 -54 162 -110 335 -56 173 -110 340 -121 370 -11 30 -22 62 -24 70
-2 8 -8 27 -14 43 -6 15 -8 27 -5 27 2 0 0 10 -7 21 -6 12 -15 34 -19 48 l-7
26 523 0 c287 0 526 -4 531 -8z m4803 -1 c86 -8 158 -17 184 -23 12 -2 32 -6
46 -7 138 -13 418 -114 521 -187 15 -10 30 -19 33 -19 3 0 21 -12 38 -27 167
-143 268 -306 304 -493 2 -14 7 -31 9 -38 8 -22 19 -161 18 -232 -2 -353 -158
-638 -468 -852 -44 -30 -88 -58 -99 -62 -10 -3 -16 -12 -13 -20 6 -14 367
-558 376 -566 3 -3 12 -17 20 -32 8 -16 18 -28 23 -28 4 0 8 -4 8 -9 0 -9 504
-769 528 -797 10 -11 42 -70 42 -76 0 -8 -1052 0 -1060 8 -7 8 -168 281 -238
404 -14 25 -36 62 -49 82 -12 21 -23 42 -23 48 0 5 -4 10 -10 10 -5 0 -10 4
-10 9 0 9 -386 678 -401 695 -6 7 -137 11 -224 7 -20 -1 -20 -8 -20 -633 l0
-631 -450 1 c-247 0 -459 1 -470 1 -20 1 -20 7 -18 1723 1 948 2 1730 2 1738
1 14 74 16 669 14 367 -1 696 -4 732 -8z"/>
<path d="M6533 3977 c-4 -7 -8 -730 -4 -780 1 -11 274 -6 326 6 22 5 51 11 64
13 44 9 126 57 167 98 72 74 113 193 108 321 -3 76 -21 155 -36 155 -5 0 -6 5
-3 10 3 6 1 10 -4 10 -6 0 -11 6 -11 14 0 27 -98 97 -170 122 -39 14 -75 22
-80 19 -6 -3 -10 -3 -10 2 0 10 -9 11 -193 15 -87 3 -151 0 -154 -5z"/>
<path d="M250 3933 c-85 -44 -167 -119 -201 -183 -13 -25 -24 -49 -25 -55 -1
-5 -3 -12 -4 -15 -1 -3 -4 -14 -7 -25 -3 -11 -7 -348 -8 -748 -2 -615 0 -738
12 -785 16 -62 50 -125 85 -159 50 -49 77 -73 82 -73 3 0 27 -13 53 -28 27
-16 60 -32 76 -35 29 -8 30 -6 28 63 -1 19 -2 40 -2 45 0 6 0 75 0 155 1 80 1
154 0 165 0 23 0 545 0 560 0 16 1 218 0 235 0 8 0 62 0 120 1 58 0 112 0 120
0 8 0 134 0 280 0 146 0 272 -1 280 0 8 1 20 2 25 6 24 -1 95 -9 95 -5 0 -42
-17 -81 -37z"/>
<path d="M9161 3834 c0 -75 -2 -138 -4 -141 -3 -2 -2 -17 2 -31 4 -15 4 -39 0
-54 -4 -16 -3 -30 1 -33 5 -3 5 -16 1 -28 -5 -12 -5 -33 -1 -47 3 -14 4 -35 1
-48 -3 -12 -4 -80 -1 -151 3 -71 2 -142 -1 -157 -3 -16 -2 -38 1 -49 4 -11 4
-30 1 -43 -3 -12 -4 -83 -1 -158 3 -74 2 -143 -1 -152 -3 -9 -3 -28 1 -42 4
-14 3 -37 -1 -52 -4 -16 -3 -30 1 -33 5 -3 5 -16 1 -28 -5 -12 -5 -33 -1 -47
3 -14 4 -35 1 -48 -3 -12 -4 -80 -1 -151 3 -71 2 -142 -1 -157 -3 -16 -2 -38
1 -49 4 -11 4 -30 1 -43 -3 -12 -5 -79 -3 -147 4 -143 -1 -139 97 -90 75 38
174 135 204 200 13 28 27 77 31 110 8 62 5 1455 -3 1490 -15 69 -45 121 -103
181 -46 48 -181 134 -211 134 -9 0 -12 -37 -12 -136z"/>
</g>
</svg>
